<svg xmlns="http://www.w3.org/2000/svg" viewBox="0 0 80 80" xml:space="preserve">  <path d="M75.7 40.1H75l-7.3-17.6c-1-2.3-3.2-3.8-5.7-3.8H50.7v-3.2c0-3.2-2.6-5.7-5.7-5.7H35c-3.1 0-5.7 2.6-5.7 5.7v3.2H18.6c-2.5 0-4.7 1.5-5.7 3.8L5.5 40.1H4.3c-2.4 0-4.3 2-4.3 4.3s2 4.3 4.3 4.3h1.2l7.3 17.6c1 2.3 3.2 3.8 5.7 3.8h43.3c2.5 0 4.7-1.5 5.7-3.8L75 48.8h.7c2.4 0 4.3-2 4.3-4.3s-2-4.4-4.3-4.4zM32.1 15.5c0-1.6 1.3-2.9 2.9-2.9h10c1.6 0 2.9 1.3 2.9 2.9v2.9H32.1v-2.9zm-16.6 8.1c.5-1.2 1.7-2 3.1-2h43.3c1.3 0 2.6.8 3.1 2l6.9 16.5H8.6l6.9-16.5zM65 65.3c-.5 1.2-1.7 2-3.1 2H18.6c-1.4 0-2.5-.8-3.1-2L8.6 48.8h63.3L65 65.3zM75.7 46H4.3c-.8 0-1.5-.7-1.5-1.5S3.5 43 4.3 43h71.3c.8 0 1.5.7 1.5 1.5s-.6 1.5-1.4 1.5zM26.1 63.8V52.2c0-.8.6-1.4 1.4-1.4s1.4.6 1.4 1.4v11.6c0 .8-.6 1.4-1.4 1.4s-1.4-.6-1.4-1.4zM29 25.2v11.6c0 .8-.6 1.4-1.4 1.4s-1.4-.6-1.4-1.4V25.2c0-.8.6-1.4 1.4-1.4s1.4.7 1.4 1.4zm9.4 38.6V52.2c0-.8.6-1.4 1.4-1.4s1.4.6 1.4 1.4v11.6c0 .8-.6 1.4-1.4 1.4s-1.4-.6-1.4-1.4zm2.9-38.6v11.6c0 .8-.6 1.4-1.4 1.4s-1.4-.6-1.4-1.4V25.2c0-.8.6-1.4 1.4-1.4s1.4.7 1.4 1.4zm9.2 38.6V52.2c0-.8.6-1.4 1.4-1.4s1.4.6 1.4 1.4v11.6c0 .8-.6 1.4-1.4 1.4s-1.4-.6-1.4-1.4zm2.9-38.6v11.6c0 .8-.6 1.4-1.4 1.4s-1.4-.6-1.4-1.4V25.2c0-.8.6-1.4 1.4-1.4s1.4.7 1.4 1.4z" fill="#3a5155"></path></svg>