<svg xmlns="http://www.w3.org/2000/svg" viewBox="0 0 80 80" xml:space="preserve">  <path d="m80 50.1-5-22.2c-.2-3.2-3.9-5.9-10.8-7.9-6.5-1.8-15-2.9-24.1-2.9S22.5 18.1 16 20c-7 2-10.8 4.7-10.9 7.9L0 50.1v.3c0 8.1 20.6 12.4 40 12.4s40-4.4 40-12.4v-.3zM40 20c19.9 0 32.1 4.7 32.1 8.1 0 .8-.8 1.8-2.2 2.7-1.1-5.7-19.8-7.3-29.9-7.3S11.2 25 10.1 30.8c-1.4-.9-2.2-1.9-2.2-2.7C7.9 24.8 20.1 20 40 20zm0 16.3c-9.8 0-17.7-1.2-23.2-2.7-2.6-.8-3.9-1.7-3.9-2.2 0-1.5 9.2-4.9 27.1-4.9s27.1 3.5 27.1 4.9c0 .5-1.3 1.4-3.9 2.2-5.5 1.5-13.4 2.7-23.2 2.7zm26.9 20.5C59.7 58.9 50.2 60 40 60c-22.8 0-36.8-5.5-37.1-9.5L7 32.1c1.8 1.6 4.8 3.1 8.9 4.2.3.1.6.2.9.2 3.7 1.1 8.5 1.8 13.2 2.2 2.8.2 5.8.4 8.8.4h2.6c3 0 6-.2 8.8-.4 4.6-.4 9.4-1.1 13.2-2.2.3-.1.6-.2.9-.2 4.1-1.2 7.1-2.6 8.8-4.2l4.2 18.5c-.3 1.6-3.1 4.1-10.4 6.2zM58 45.4c-.5-.6-1.4-.7-2-.3l-4 3.1h-4.7c.4-1.1 1.3-1.8 1.3-1.8.6-.5.8-1.3.4-2-.5-.7-1.3-.8-2-.4-.1.1-2.2 1.5-2.7 4.1h-3.8c.4-2 1.6-3.5 1.7-3.6.5-.6.4-1.5-.2-2-.6-.5-1.5-.4-2 .2-.9 1.1-2 3.1-2.3 5.4h-2.8c-.3-2.2-1.5-3.7-2.1-4.3-.6-.5-1.3-.8-2.1-.8-2 .2-5.9 1.1-9.6 5.6-.2.3-.4.6-.4 1s.1.7.4 1c3.5 4.2 7.1 5.2 9.5 5.4h.2c.8 0 1.5-.3 2-1v-.1c1-1.4 1.6-2.7 1.8-3.9h3c.2 1.7.9 3.5 2.4 5.2.3.3.7.5 1.1.5.3 0 .7-.1.9-.3.6-.5.7-1.4.2-2-1-1.1-1.5-2.3-1.7-3.4h4.1c.4 1.2 1.1 2.5 2.2 3.7.3.3.7.5 1.1.5.3 0 .7-.1 1-.4.6-.5.6-1.4.1-2-.6-.6-1-1.2-1.3-1.8h4.4l4 3.1c.3.2.6.3.9.3.4 0 .8-.2 1.1-.6.5-.6.4-1.5-.3-2l-3-2.3 3-2.3c.6-.3.7-1.2.2-1.8zm-27.5 7.7c-1.7-.1-4.1-.8-6.6-3.5 2.7-2.9 5.3-3.5 6.8-3.7 1.1 1.3 2.3 3.7-.2 7.2z" fill="#3a5155"></path></svg>