<svg xmlns="http://www.w3.org/2000/svg" viewBox="0 0 40 40" xml:space="preserve">  <path d="M26.8 2.7H13.2C5.9 2.8-.1 8.8 0 16.1v2.7c0 4.1 3.2 7.5 7.2 7.9 1.2 5.9 6.5 10.5 12.8 10.5s11.6-4.5 12.8-10.5c4-.4 7.2-3.8 7.2-7.9v-2.7c.1-7.3-5.9-13.3-13.2-13.4zm11.4 16.2c0 3-2.3 5.6-5.2 6.1V13c0-.5-.4-.9-.9-.9s-.9.4-.9.9v11c0 6.2-5 11.3-11.2 11.4-6.2 0-11.3-5.1-11.2-11.4V13c0-.5-.4-.9-.9-.9s-.9.4-.9.9v11.8c-2.9-.5-5.2-3-5.2-6.1V16c0-6.3 5.1-11.5 11.4-11.6h13.5C33 4.4 38.2 9.6 38.1 16l.1 2.9zm-14.1 7.2c0 .4-.1.7-.4.9l-2.8 2.9c-.5.5-1.4.5-1.9 0L16.3 27c-.5-.5-.5-1.4.1-1.9.2-.2.6-.4.9-.4h5.5c.7 0 1.3.6 1.3 1.4zm-8.2-8c0 1.3-1 2.3-2.3 2.3s-2.3-1-2.3-2.3 1-2.3 2.3-2.3 2.3 1 2.3 2.3zm12.8 0c0 1.3-1 2.3-2.3 2.3s-2.3-1-2.3-2.3 1-2.3 2.3-2.3 2.3 1 2.3 2.3z" fill="#fff"></path></svg>