<svg xmlns="http://www.w3.org/2000/svg" viewBox="0 0 40 40" xml:space="preserve">  <path d="M32.8 28.4c2.7-3.1 5-6.4 5.9-8.6.2-.6.4-1.1.6-1.7.4-1.3.6-2.5.7-3.6.7-11.4-13.7-16-20-8.1-6.5-8.2-21.7-3-19.8 9.4 0 .3.1.6.2 1 0 .1 0 .2.1.4s.1.2.1.4c.2.8.4 1.6.8 2.4.9 2.2 3.1 5.4 5.8 8.5 4.2 4.8 9.5 9.3 12.9 9.3 3.3-.3 8.6-4.7 12.7-9.4zm-8.9 5.5c-2.1 1.4-3.4 1.6-3.9 1.6s-1.7-.2-3.9-1.6c-1.6-1.1-3.4-2.6-5.3-4.5-3.4-3.5-6.6-7.8-7.6-10.4-.9-2.1-1.2-4.1-1.1-6 .1-1.6.6-3.1 1.5-4.4C5.3 6 8.4 4.4 11.7 4.4c2.8 0 5.2 1.1 6.8 3.2l1.5 2 1.6-1.9c1.6-2 4.1-3.2 6.8-3.2 3.3 0 6.4 1.6 8.1 4.2.9 1.3 1.3 2.8 1.5 4.4.1 1.9-.2 3.9-1.1 6-1.1 2.6-4.2 6.8-7.7 10.4-1.9 1.7-3.7 3.3-5.3 4.4z" fill="#fff"></path></svg>