<svg xmlns="http://www.w3.org/2000/svg" viewBox="0 0 40 40" xml:space="preserve">  <path d="M22 26c-.1-2.4-.2-4.6-2.6-6.3-2.5-1.5-4.8-.9-7.2-.2-1.2.3-2.5.7-4 .9-4.2.5-7 2.1-7.9 4.4-.5 1.4-.2 2.8.8 4 1.3 1.5 3.3 1.8 5.2 2 1.4.2 2.8.4 3.9 1.1 1.1.7 1.7 1.8 2.3 2.9.8 1.5 1.8 3.2 3.8 3.8.5.2 1 .3 1.6.3 1.1 0 2.2-.4 3-1.1 1-.9 2.6-3.2 1.6-8-.4-1.5-.4-2.6-.5-3.8zm-2.5 10.1c-.7.6-1.6.8-2.6.5-1.2-.4-1.9-1.6-2.6-2.9-.7-1.3-1.5-2.7-3-3.7-1.4-1-3.2-1.2-4.7-1.4-1.7-.2-3.1-.4-3.9-1.3-.4-.4-.7-1.1-.4-1.9.2-.6 1.3-2.4 6.2-3 1.6-.2 3-.6 4.2-.9 1.3-.4 2.4-.7 3.4-.7.8 0 1.5.2 2.2.6 1.5 1 1.6 2.3 1.7 4.7 0 1.2.1 2.5.4 4 .6 2.8.2 4.9-.9 6zM5.3 18.4c1.2 0 2.2-.5 3.1-1.4 1.3-1.3 2-3.3 2-5.5 0-3.8-2.3-6.8-5.2-6.8-1.4 0-2.8.8-3.7 2.2C.6 8.2.1 9.9.1 11.6c.1 3.8 2.3 6.8 5.2 6.8zM3.2 8c.6-.8 1.3-1.3 2.1-1.3 1.7 0 3.1 2.2 3.2 4.8 0 1.6-.5 3.2-1.4 4.1-.3.4-.9.8-1.7.8-1.7 0-3.2-2.2-3.2-4.8 0-1.4.3-2.7 1-3.6zm36.6 18.8c-.9-2.5-4.7-3.5-8.7-2.4-2.4.7-4.4 2.2-5.2 3.9-.5 1-.6 2-.2 2.9.7 1.8 2.8 2.9 5.4 2.9 1 0 2.1-.2 3.2-.5 2.4-.7 4.4-2.2 5.2-3.9.6-1 .6-2 .3-2.9zm-2.1 2c-.6 1.2-2.1 2.2-4 2.8-3 .9-5.7.2-6.2-1.1-.1-.4-.1-.8.1-1.3.6-1.2 2.1-2.2 4-2.8 3.1-.9 5.7-.2 6.2 1.1.2.4.2.8-.1 1.3zM16.6 14.6c.5.2 1.1.3 1.7.3 2.4 0 5-1.8 6.5-4.7 1.1-2.1 1.4-4.4.7-6.2-.4-1.2-1.2-2.1-2.3-2.5-2.7-1.2-6.3.7-8.2 4.3-1.1 2.1-1.4 4.4-.7 6.2.4 1.3 1.2 2.1 2.3 2.6zm.3-7.7C18 4.8 20 3.3 21.6 3.3c.3 0 .6.1.9.2.5.2.9.7 1.2 1.3.3 1.2.1 2.9-.8 4.5-1.3 2.6-3.9 4.1-5.6 3.4-.5-.2-.9-.7-1.2-1.3-.3-1.3-.1-3 .8-4.5zM29 21.6c2 0 4.2-.9 6.1-2.6 1.9-1.7 3-3.8 3-5.7 0-1.2-.4-2.2-1.2-3-2.1-1.9-6.2-1.3-9.3 1.5-1.9 1.7-3 3.8-3 5.7 0 1.2.4 2.2 1.2 3 .8.7 1.9 1.1 3.2 1.1zm0-8.3c1.6-1.4 3.4-2.1 4.7-2.1.8 0 1.4.2 1.8.6.4.4.6.8.6 1.5 0 1.3-.9 2.9-2.3 4.2-2.5 2.2-5.4 2.5-6.5 1.5-.4-.4-.6-.8-.6-1.5 0-1.3.9-2.9 2.3-4.2z" fill="#fff"></path></svg>