<svg xmlns="http://www.w3.org/2000/svg" viewBox="0 0 80 80" xml:space="preserve">  <path d="M55 19H25C11.2 19 0 30.2 0 44v3.8C0 55.1 5.9 61 13.1 61h53.7C74.1 61 80 55.1 80 47.8V44c0-13.8-11.2-25-25-25zm22.4 28.8c0 5.8-4.7 10.5-10.5 10.5H13.1c-5.8 0-10.5-4.7-10.5-10.5V44c0-12.3 10-22.4 22.4-22.4h30c12.3 0 22.4 10 22.4 22.4v3.8zM56.1 25.6h-32C16 25.6 9 31.1 8.5 37.8c0 .4.1.7.4 1s.6.4 1 .4h3.9c3.5 0 6.2 2.2 6.2 4.9v7.2c0 2.2 2.1 4 4.6 4h30.3c2.5 0 4.6-1.8 4.6-4v-7.2c0-2.7 2.8-4.9 6.3-4.9h3.8c.7 0 1.3-.6 1.3-1.3-.1-6.8-6.7-12.3-14.8-12.3zm.7 25.8c0 .8-.9 1.4-2 1.4H24.5c-1.1 0-2-.6-2-1.4v-7.2c0-.9-.2-1.7-.5-2.5 15.2-5.4 30.6-1.5 35.3 0-.3.8-.5 1.6-.5 2.5v7.2zm8.9-14.8c-2.8 0-5.2 1.1-6.8 2.8-4-1.4-21.1-6.4-38.3 0-1.6-1.7-4.1-2.8-6.9-2.8h-2.3c1.2-4.8 6.6-8.4 12.7-8.4h32c6.1 0 11.2 3.7 12 8.4h-2.4z" fill="#3a5155"></path></svg>