<svg xmlns="http://www.w3.org/2000/svg" viewBox="0 0 80 80" xml:space="preserve">  <path d="M70 40c0-16.5-13.5-30-30-30S10 23.5 10 40c0 11.2 6.2 21 15.3 26.2 0 0 .1.1.2.1C29.8 68.6 34.7 70 40 70s10.2-1.4 14.5-3.8c.1 0 .1-.1.2-.1C63.8 61 70 51.2 70 40zM48.3 14.2c-1 .7-2 1.5-3 2.3-1.4-.8-3.3-1.3-5.4-1.3-2.2 0-4.2.5-5.6 1.4-.9-.9-1.8-1.7-2.9-2.4 2.7-.9 5.5-1.4 8.5-1.4 3 .1 5.8.5 8.4 1.4zm-3.6 7c-.8.7-2.4 1.4-4.7 1.4-2.2 0-3.9-.7-4.7-1.4 0-.1-.1-.1-.2-.2-.2-.2-.3-.5-.3-.7s.1-.5.3-.7l.1-.1c.8-.7 2.4-1.4 4.7-1.4 3.2 0 5.2 1.4 5.2 2.3 0 .2-.1.5-.3.7l-.1.1zM12.9 40c0-10.7 6.2-20 15.3-24.4 1.6.7 3.1 1.8 4.3 3-.3.5-.4 1.1-.4 1.7 0 .5.1 1 .3 1.5-3.5 3.2-14.2 15.3-8.4 40-6.8-4.9-11.1-12.9-11.1-21.8zm14.5 24c-7-25.3 3.6-37.2 6.8-40.1 1.4.9 3.5 1.5 5.8 1.5s4.3-.6 5.8-1.5C49 26.8 59.6 38.7 52.6 64c-3.8 2-8 3.1-12.6 3.1S31.2 66 27.4 64zm28.7-2.2c5.8-24.7-4.9-36.8-8.4-40 .2-.5.3-1 .3-1.5 0-.7-.2-1.3-.5-1.9 1.3-1.1 2.7-2.1 4.1-3 9.2 4.3 15.6 13.7 15.6 24.5-.1 9-4.4 17-11.1 21.9z" fill="#3a5155"></path></svg>