<svg xmlns="http://www.w3.org/2000/svg" xmlns:xlink="http://www.w3.org/1999/xlink" id="Layer_1" x="0px" y="0px" viewBox="0 0 80 80" style="enable-background:new 0 0 80 80;" xml:space="preserve"><style type="text/css">	.st0{fill:#FFFFFF;}</style><path id="pawprint" class="st0" d="M77.3,46.3c1.6-1.7,2.6-4,2.7-6.3c0-2.7-1.3-4.3-2.7-6.3c-0.7-1.3-1.7-2.3-2-3.3s0-2.3,0-4 c0.5-2.2,0.2-4.6-0.7-6.7c-1.3-2-3.3-3-5.3-4c-1.2-0.5-2.3-1.2-3.3-2c-0.8-1-1.5-2.1-2-3.3c-1-1.7-2-3.7-4-5 c-2.1-0.9-4.4-1.1-6.7-0.7c-1.3,0-3,0.3-4,0c-1.2-0.5-2.3-1.2-3.3-2C44.3,1.3,42.3,0,40,0s-4.3,1.3-6.3,2.7c-1.3,0.7-2.3,1.7-3.3,2 s-2.3,0-4,0C24.2,4.2,22,4.5,20,5.3c-2,1.3-3,3.3-4,5.3c-0.7,1.3-1,2.7-2,3.3c-1.1,0.7-2.2,1.4-3.3,2c-2,1-4,2-5.3,4 c-0.9,2.1-1.1,4.4-0.7,6.7c0,1.3,0.3,3,0,4c-0.5,1.2-1.2,2.3-2,3.3C1.3,35.7,0,37.7,0,40s1.3,4.3,2.7,6.3c0.7,1.3,1.7,2.3,2,3.3 s0,2.3,0,4c-0.5,2.2-0.2,4.6,0.7,6.7c1.3,2,3.3,3,5.3,4c1.2,0.5,2.3,1.2,3.3,2c0.8,1,1.5,2.1,2,3.3c1,1.7,2,3.7,4,5 c2.1,0.9,4.4,1.1,6.7,0.7c1.3,0,3-0.3,4,0c1.2,0.5,2.3,1.2,3.3,2c1.7,1.6,4,2.6,6.3,2.7c2.7,0,4.3-1.3,6.3-2.7 c1.3-0.7,2.3-1.7,3.3-2s2.3,0,4,0c2.2,0.5,4.6,0.2,6.7-0.7c2-1.3,3-3.3,4-5.3c0.5-1.2,1.2-2.3,2-3.3c1-0.8,2.1-1.5,3.3-2 c2-1,4.3-2,5.3-4c0.9-2.1,1.1-4.4,0.7-6.7c0-1.3-0.3-3,0-4C75.7,48.3,76.3,47.3,77.3,46.3z M74.7,44.3c-1.1,1.2-1.9,2.7-2.3,4.3 c-0.3,1.7-0.3,3.3,0,5c0,1.7,0.3,3.7-0.3,4.7c-1.1,1.2-2.5,2.1-4,2.7c-3.3,1.1-5.9,3.7-7,7c-0.7,1.7-1.3,3.3-2.7,4 c-1,0.7-2.7,0.3-4.7,0.3c-1.7-0.2-3.3-0.2-5,0c-1.6,0.4-3.1,1.2-4.3,2.3c-1.7,1-3,2-4.3,2s-2.7-1-4.3-2c-1.2-1.1-2.7-1.9-4.3-2.3 c-0.7-0.3-1.5-0.4-2.3-0.3h-2.7c-1.7,0-3.7,0.3-4.7-0.3s-1.7-2.3-2.7-4c-0.6-1.6-1.5-3.1-2.7-4.3c-1.2-1.2-2.7-2.1-4.3-2.7 C10.3,60,8.7,59.3,8,58c-0.7-1-0.3-2.7-0.3-4.7c0.2-1.7,0.2-3.3,0-5c-0.4-1.6-1.2-3.1-2.3-4.3c-1-1.3-2-2.7-2-4s1-2.7,2-4.3 c1.1-1.2,1.9-2.7,2.3-4.3c0.3-1.6,0.3-3.4,0-5c0-1.7-0.3-3.7,0.3-4.7c1.1-1.2,2.5-2.1,4-2.7c1.6-0.6,3.1-1.5,4.3-2.7 c1.2-1.2,2.1-2.7,2.7-4.3c0.7-1.7,1.3-3.3,2.7-4c1-0.7,2.7-0.3,4.7-0.3c1.7,0.2,3.3,0.2,5,0c1.6-0.4,3.1-1.2,4.3-2.3 c1.7-1,3-2,4.3-2s2.7,1,4.3,2c1.2,1.1,2.7,1.9,4.3,2.3c1.7,0.3,3.3,0.3,5,0c1.7,0,3.7-0.3,4.7,0.3s1.7,2.3,2.7,4 c0.6,1.6,1.5,3.1,2.7,4.3c1.2,1.2,2.7,2.1,4.3,2.7c1.7,0.7,3.3,1.3,4,2.7c0.7,1,0.3,2.7,0.3,4.7c-0.2,1.7-0.2,3.3,0,5 c0.4,1.6,1.2,3.1,2.3,4.3c1,1.7,2,3,2,4.3S75.7,42.7,74.7,44.3L74.7,44.3z M49.3,47.3l-2-2c0-0.3-0.3-0.7-0.7-1.3c-0.7-2-2-6-7-6 s-6.3,4-7,6c-0.1,0.5-0.3,1-0.7,1.3l-2,2C28.3,49,26,51,26,54c0,1.5,0.6,2.9,1.7,4c1.4,1.2,3.2,1.9,5,2c1.7,0.1,3.3-0.4,4.7-1.3 c0.8-0.4,1.7-0.6,2.7-0.7c0.9,0.1,1.8,0.3,2.7,0.7c1.4,0.9,3,1.4,4.7,1.3c1.7,0.1,3.4-0.5,4.7-1.7c1.1-1.1,1.7-2.5,1.7-4 C53.3,51,51.3,49,49.3,47.3z M49.3,56c-0.3,0.7-1.3,0.7-2,0.7c-1.1,0-2.1-0.3-3-1c-1.2-0.8-2.6-1.3-4-1.3c-1.4,0-2.9,0.4-4,1.3 c-0.9,0.7-1.9,1-3,1c-0.8,0.1-1.7-0.1-2.3-0.7c-0.6-0.3-1-1-1-1.7c0-1.7,1.3-3,3-4.3c0.7-0.7,1.7-1.3,2-2.3c0.4-0.8,0.7-1.5,1-2.3 c0.7-2.3,1.7-3.7,4-3.7s3,1.7,4,3.7c0.3,0.8,0.6,1.6,1,2.3c0.7,0.7,1.4,1.5,2,2.3c1.5,1,2.6,2.6,3,4.3C50,55,49.8,55.5,49.3,56z  M56,33.3c-2.7,0-5,2.7-5.7,6.3c-0.1,0.6-0.2,1.1-0.3,1.7c0,1.4,0.4,2.9,1.3,4c0.7,0.7,1.7,1,2.7,1c2.7,0,5-2.7,5.7-6.3l0,0 c0.1-0.6,0.2-1.1,0.3-1.7C60,35.3,58.3,33.3,56,33.3z M56.7,39.7c-0.3,2.3-2,3.7-2.7,3.7c-0.3-0.5-0.4-1.1-0.3-1.7v-1 c0.3-2.3,1.7-3.7,2.7-3.7c0.3,0,0.7,0.7,0.7,2C56.7,39,56.7,39.3,56.7,39.7L56.7,39.7z M46.3,35c3,0,6-3,6.7-7.3V26 c0-1.8-0.6-3.6-1.7-5c-0.7-0.7-1.7-1-2.7-1c-3,0-6,3-6.7,7.3V29c0,1.8,0.6,3.6,1.7,5C44.4,34.7,45.3,35,46.3,35z M45,27.7 c0.3-2.7,2.3-4.3,3.3-4.3c0.3,0,0.7,0,0.7,0.3c0.7,0.6,1.1,1.4,1,2.3v1l0,0c-0.7,3-3,5.3-4,4c-0.5-0.8-0.7-1.7-0.7-2.7 C45,28.7,45,28,45,27.7z M30,41.3c0.1-0.6-0.1-1.2-0.3-1.7c-0.7-3.7-3-6.3-5.7-6.3c-2.3,0-4,2-4,5.3c-0.1,0.6,0.1,1.2,0.3,1.7l0,0 c0.7,3.7,3,6.3,5.7,6.3c1,0,1.9-0.3,2.7-1C29.5,44.4,30,42.9,30,41.3z M26,43.3c-0.7,0-2-1.3-2.7-3.7v-1c0-1.3,0.3-2,0.7-2 c0.7,0,2,1.3,2.7,3.7v1C26.7,42.1,26.5,42.8,26,43.3z M33.7,35c1.2,0.1,2.3-0.4,3-1.3c1.1-1.4,1.7-3.2,1.7-5V27c-1-4-4-7-7-7 c-1.1,0-2.2,0.5-3,1.3c-1.1,1.4-1.7,3.2-1.7,5v1.3C27.7,32,30.7,35,33.7,35z M30.7,23.7c0.3-0.3,0.3-0.3,0.7-0.3c1.3,0,3,2,3.3,4.3 v1c0,0.9-0.3,1.8-0.7,2.7c-1,1.3-3.3-1-4-4l0,0v-1C29.9,25.4,30.2,24.5,30.7,23.7z"></path></svg>