<svg xmlns="http://www.w3.org/2000/svg" xmlns:xlink="http://www.w3.org/1999/xlink" id="Layer_1" x="0px" y="0px" viewBox="0 0 28 28" style="enable-background:new 0 0 28 28;" xml:space="preserve"><style type="text/css">	.st0{fill:#FFFFFF;}</style><path class="st0" d="M24.5,3H3.6C1.6,3,0,4.5,0,6.5v15C0,23.5,1.6,25,3.5,25h20.8c2,0,3.6-1.5,3.6-3.5v-15C28,4.6,26.4,3,24.5,3z  M3.6,5h20.9C25.3,5,26,5.7,26,6.5v0.4l-12,8.2L2,6.9V6.5C2,5.7,2.7,5,3.6,5z M24.4,23H3.6C2.8,23,2,22.3,2,21.5V9.3l11.4,7.8 c0.2,0.1,0.4,0.2,0.6,0.2s0.4-0.1,0.6-0.2L26,9.3v12.2C26,22.3,25.3,23,24.4,23z"></path></svg>