<svg xmlns="http://www.w3.org/2000/svg" xmlns:xlink="http://www.w3.org/1999/xlink" id="Layer_1" x="0px" y="0px" viewBox="0 0 28 28" style="enable-background:new 0 0 28 28;" xml:space="preserve"><style type="text/css">	.st0{fill:#FFFFFF;}</style><path class="st0" d="M14,0C6.3,0,0,6.3,0,14s6.3,14,14,14s14-6.3,14-14S21.7,0,14,0z M14,26C7.4,26,2,20.6,2,14S7.4,2,14,2 s12,5.4,12,12S20.6,26,14,26z M20,17c-0.2,0.4-0.5,0.5-0.9,0.5c-0.1,0-0.3,0-0.5-0.1l-5.1-2.5C13.2,14.7,13,14.4,13,14V6.4 c0-0.6,0.4-1,1-1s1,0.4,1,1v7l4.5,2.3C20,15.9,20.2,16.5,20,17z"></path></svg>