<svg xmlns="http://www.w3.org/2000/svg" xmlns:xlink="http://www.w3.org/1999/xlink" id="Layer_1" x="0px" y="0px" viewBox="0 0 28 28" style="enable-background:new 0 0 28 28;" xml:space="preserve"><style type="text/css">	.st0{fill:#FFFFFF;}</style><path class="st0" d="M24.9,16.8c-1.2-0.2-2.3-0.4-3.5-0.9c-1.3-0.5-2.8-0.2-3.8,0.8l-1.1,1.1c-2.6-1.6-4.8-3.8-6.4-6.4l1.1-1.1 c1-1,1.3-2.5,0.8-3.8c-0.4-1.1-0.7-2.3-0.9-3.5C10.9,1.3,9.4,0,7.6,0h-4C3.5,0,3.4,0,3.3,0C1.3,0.2-0.2,2,0,4 c0.4,4.2,1.9,8.2,4.2,11.7c2.1,3.3,4.9,6.1,8.1,8.1c3.5,2.3,7.6,3.7,11.7,4.2c0.1,0,0.2,0,0.3,0c2,0,3.6-1.6,3.6-3.6v-3.9 C28,18.7,26.7,17.1,24.9,16.8z M26,20.5v3.9c0,0.9-0.7,1.6-1.6,1.6h-0.1c-3.9-0.4-7.6-1.8-10.9-3.9c-3-1.9-5.6-4.5-7.5-7.5 C3.8,11.4,2.4,7.6,2,3.8C1.9,2.9,2.6,2.1,3.5,2c0,0,0.1,0,0.2,0h4C8.4,2,9,2.6,9.2,3.4c0.2,1.3,0.5,2.6,1,3.9 c0.2,0.6,0.1,1.2-0.4,1.7l-1.7,1.7c-0.3,0.3-0.4,0.8-0.2,1.2c1.9,3.4,4.8,6.3,8.2,8.2c0.4,0.2,0.9,0.1,1.2-0.2l1.7-1.6 c0.5-0.4,1.1-0.6,1.7-0.4c1.2,0.5,2.6,0.8,3.9,1C25.4,18.9,26,19.6,26,20.5C26,20.4,26,20.5,26,20.5z"></path></svg>