<svg xmlns="http://www.w3.org/2000/svg" xmlns:xlink="http://www.w3.org/1999/xlink" id="Layer_1" x="0px" y="0px" viewBox="0 0 28 28" style="enable-background:new 0 0 28 28;" xml:space="preserve"><style type="text/css">	.st0{fill:#FFFFFF;}</style><path class="st0" d="M14,28c-0.2,0-0.4-0.1-0.6-0.2C13,27.5,2.4,20.3,2.4,11.6c0-3.1,1.2-6,3.4-8.2C8,1.2,10.9,0,14,0 c6.4,0,11.6,5.2,11.6,11.6c0,8.7-10.6,15.9-11.1,16.2C14.4,27.9,14.2,28,14,28z M14,2c-2.6,0-5,1-6.8,2.8s-2.8,4.2-2.8,6.8 c0,6.6,7.5,12.6,9.6,14.1c2.1-1.6,9.6-7.5,9.6-14.1C23.6,6.3,19.3,2,14,2z M14,17c-2.8,0-5-2.2-5-5s2.2-5,5-5s5,2.2,5,5 S16.8,17,14,17z M14,9c-1.6,0-3,1.4-3,3s1.4,3,3,3s3-1.4,3-3S15.6,9,14,9z"></path></svg>