<svg xmlns="http://www.w3.org/2000/svg">
  <path d="M55.01 19.02H24.99C11.21 19.02 0 30.23 0 44.01v3.83c0 7.25 5.9 13.15 13.15 13.15h53.7c7.25 0 13.15-5.9 13.15-13.15v-3.83c0-13.78-11.21-24.99-24.99-24.99zm22.37 28.81c0 5.8-4.72 10.53-10.53 10.53h-53.7c-5.81 0-10.53-4.72-10.53-10.53V44c0-12.33 10.03-22.37 22.37-22.37h30.02c12.33 0 22.37 10.03 22.37 22.37v3.83zM56.13 25.58H24.08c-8.08 0-15.06 5.49-15.55 12.25-.03.36.1.72.35.99.25.27.6.42.96.42h3.85c3.45 0 6.25 2.2 6.25 4.91v7.22c0 2.21 2.06 4.01 4.59 4.01h30.31c2.53 0 4.6-1.8 4.6-4.01v-7.22c0-2.71 2.8-4.91 6.25-4.91h3.85c.72 0 1.31-.59 1.31-1.31 0-6.82-6.6-12.35-14.72-12.35zm.69 25.78c0 .75-.9 1.39-1.97 1.39H24.53c-1.07 0-1.97-.64-1.97-1.39v-7.22c0-.88-.19-1.72-.51-2.5 15.22-5.4 30.6-1.46 35.29 0-.33.78-.51 1.62-.51 2.5v7.22zm8.87-14.75c-2.76 0-5.22 1.07-6.85 2.75-4.02-1.36-21.06-6.36-38.28.03-1.63-1.69-4.1-2.78-6.88-2.78h-2.31c1.2-4.75 6.57-8.41 12.71-8.41h32.05c6.12 0 11.19 3.67 11.99 8.41h-2.43z" fill="#17383e"></path>
</svg>