<svg xmlns="http://www.w3.org/2000/svg">
  <path d="M75.65 40.11h-.68l-7.35-17.6c-.98-2.3-3.21-3.78-5.7-3.78H50.71v-3.2c0-3.15-2.56-5.71-5.71-5.71H35c-3.15 0-5.71 2.56-5.71 5.71v3.2H18.57c-2.49 0-4.73 1.48-5.71 3.79L5.51 40.11H4.35c-2.4 0-4.35 1.95-4.35 4.35s1.95 4.35 4.35 4.35h1.17l7.35 17.6c.98 2.3 3.21 3.78 5.7 3.78h43.35c2.49 0 4.73-1.48 5.71-3.79l7.35-17.59h.68c2.4 0 4.35-1.95 4.35-4.35s-1.96-4.35-4.36-4.35zM32.14 15.53c0-1.58 1.28-2.86 2.86-2.86h10c1.58 0 2.86 1.28 2.86 2.86v2.86H32.14v-2.86zm-16.65 8.09c.53-1.24 1.73-2.04 3.09-2.04h43.34c1.34 0 2.55.8 3.08 2.03l6.89 16.49H8.61l6.88-16.48zM65 65.29c-.53 1.24-1.73 2.04-3.08 2.04H18.57c-1.35 0-2.55-.8-3.07-2.03L8.61 48.8h63.27L65 65.29zm10.65-19.34H4.35c-.82 0-1.49-.67-1.49-1.49s.67-1.49 1.49-1.49h71.31c.82 0 1.49.67 1.49 1.49-.01.82-.68 1.49-1.5 1.49zm-49.52 17.9V52.21c0-.79.64-1.43 1.43-1.43s1.43.64 1.43 1.43v11.64c0 .79-.64 1.43-1.43 1.43s-1.43-.64-1.43-1.43zm2.86-38.6v11.64c0 .79-.64 1.43-1.43 1.43s-1.43-.64-1.43-1.43V25.25c0-.79.64-1.43 1.43-1.43s1.43.64 1.43 1.43zm9.43 38.6V52.21c0-.79.64-1.43 1.43-1.43.79 0 1.43.64 1.43 1.43v11.64c0 .79-.64 1.43-1.43 1.43-.79 0-1.43-.64-1.43-1.43zm2.85-38.6v11.64c0 .79-.64 1.43-1.43 1.43-.79 0-1.43-.64-1.43-1.43V25.25c0-.79.64-1.43 1.43-1.43.79 0 1.43.64 1.43 1.43zm9.24 38.6V52.21c0-.79.64-1.43 1.43-1.43.79 0 1.43.64 1.43 1.43v11.64c0 .79-.64 1.43-1.43 1.43-.79 0-1.43-.64-1.43-1.43zm2.85-38.6v11.64c0 .79-.64 1.43-1.43 1.43-.79 0-1.43-.64-1.43-1.43V25.25c0-.79.64-1.43 1.43-1.43.79 0 1.43.64 1.43 1.43z" fill="#17383e"></path>
</svg>