<svg xmlns="http://www.w3.org/2000/svg"><path d="M26.76 2.73H13.23C5.89 2.78-.05 8.79 0 16.13v2.73c.04 4.11 3.21 7.5 7.22 7.91 1.21 5.95 6.46 10.46 12.78 10.5 6.31-.04 11.56-4.55 12.77-10.5 4.01-.4 7.18-3.8 7.22-7.91v-2.72c.06-7.35-5.88-13.36-13.23-13.41zm11.42 16.12c-.03 3.04-2.27 5.56-5.18 6.06.02-.28.04-.55.04-.83V13.03c0-.5-.41-.91-.91-.91s-.91.41-.91.91v11.04c.04 6.23-5 11.34-11.22 11.38-6.23-.04-11.27-5.15-11.23-11.39V13.03c0-.5-.41-.91-.91-.91s-.91.41-.91.91v11.03c0 .28.02.56.04.84-2.9-.49-5.15-3.02-5.18-6.05v-2.73C1.78 9.78 6.9 4.59 13.24 4.55h13.52c6.34.04 11.47 5.24 11.43 11.59v2.71zm-14.11 7.24c-.01.35-.15.68-.39.92l-2.81 2.85c-.51.52-1.35.53-1.87.02l-.04-.04-2.66-2.85c-.51-.55-.48-1.41.08-1.92.24-.23.56-.36.9-.36h5.47c.74 0 1.34.63 1.32 1.38zm-8.15-8.01c0 1.29-1.03 2.33-2.3 2.33s-2.3-1.04-2.3-2.33 1.03-2.33 2.3-2.33 2.3 1.04 2.3 2.33zm12.75 0c0 1.29-1.03 2.33-2.3 2.33-1.27 0-2.3-1.04-2.3-2.33s1.03-2.33 2.3-2.33c1.28 0 2.3 1.04 2.3 2.33z" fill="#fff"></path></svg>