<svg xmlns="http://www.w3.org/2000/svg"><path d="M22.01 26c-.1-2.39-.19-4.64-2.63-6.31l-.04-.03c-2.47-1.51-4.79-.87-7.25-.2-1.22.34-2.49.68-3.96.87-4.16.52-7.03 2.11-7.88 4.36-.51 1.37-.21 2.82.82 3.98 1.34 1.5 3.29 1.75 5.17 1.99 1.45.18 2.81.36 3.92 1.11 1.05.65 1.66 1.75 2.31 2.92.83 1.49 1.78 3.17 3.76 3.83.52.17 1.05.26 1.57.26 1.11 0 2.18-.39 3.01-1.14 1.03-.92 2.6-3.19 1.56-7.98-.26-1.32-.31-2.51-.36-3.66zm-2.55 10.11c-.68.61-1.62.78-2.57.46-1.23-.41-1.88-1.56-2.62-2.89-.72-1.28-1.53-2.73-3.04-3.67-1.44-.97-3.19-1.19-4.73-1.39-1.65-.21-3.07-.39-3.9-1.32-.37-.41-.74-1.07-.43-1.89.21-.56 1.28-2.43 6.21-3.05 1.63-.2 3.02-.59 4.25-.93 1.33-.37 2.41-.66 3.41-.66.76 0 1.47.17 2.2.62 1.5 1.04 1.61 2.26 1.71 4.69.05 1.18.1 2.52.43 4.01.6 2.76.26 4.95-.92 6.02zM5.34 18.38h.03c1.15-.01 2.22-.49 3.11-1.4 1.29-1.31 2.02-3.33 2-5.52-.04-3.84-2.32-6.84-5.21-6.84h-.04c-1.44.02-2.78.79-3.74 2.19C.6 8.09.12 9.78.13 11.55c.03 3.84 2.32 6.83 5.21 6.83zM3.17 7.98c.58-.83 1.32-1.29 2.08-1.3h.02c1.69 0 3.13 2.19 3.15 4.8.02 1.63-.51 3.15-1.41 4.06-.35.36-.92.78-1.66.79-1.72.01-3.15-2.19-3.17-4.8-.01-1.35.34-2.61.99-3.55zm36.62 18.85c-.93-2.52-4.74-3.55-8.68-2.35-2.44.74-4.39 2.19-5.23 3.87-.49.98-.57 1.99-.23 2.9.66 1.81 2.82 2.85 5.44 2.85 1.03 0 2.13-.16 3.24-.5 2.44-.74 4.39-2.18 5.23-3.86.49-.99.57-2 .23-2.91zm-2.07 1.98c-.58 1.17-2.11 2.25-3.99 2.81-3.05.93-5.7.16-6.16-1.1-.14-.38-.09-.81.14-1.28.58-1.17 2.11-2.24 3.99-2.82 3.05-.93 5.7-.17 6.16 1.1.15.39.1.82-.14 1.29zM16.58 14.6c.54.23 1.11.34 1.7.34 2.37 0 4.97-1.79 6.48-4.68 1.09-2.09 1.37-4.39.74-6.16-.42-1.2-1.21-2.07-2.28-2.54-2.71-1.17-6.3.74-8.19 4.34-1.09 2.09-1.37 4.39-.74 6.16.43 1.2 1.22 2.08 2.29 2.54zm.28-7.75c1.12-2.14 3.07-3.58 4.66-3.58.31 0 .61.06.89.17.54.23.93.68 1.16 1.34.44 1.24.21 2.93-.63 4.53-1.34 2.56-3.88 4.12-5.55 3.4-.54-.23-.93-.68-1.16-1.34-.44-1.24-.2-2.93.63-4.52zM28.98 21.6c1.95 0 4.21-.9 6.11-2.58 1.87-1.66 3-3.79 3.02-5.69.01-1.2-.41-2.24-1.21-2.98-2.1-1.95-6.19-1.31-9.3 1.46-1.87 1.66-3 3.8-3.02 5.7-.01 1.2.41 2.23 1.21 2.98.83.75 1.95 1.11 3.19 1.11zm-.01-8.27c1.6-1.42 3.36-2.07 4.73-2.07.76 0 1.39.2 1.8.58.38.35.56.84.56 1.46-.01 1.31-.91 2.91-2.33 4.18-2.49 2.21-5.39 2.55-6.53 1.49-.38-.35-.56-.84-.56-1.45.01-1.32.91-2.92 2.33-4.19z" fill="#fff"></path></svg>