<svg xmlns="http://www.w3.org/2000/svg">
  <path d="m79.97 50.1-5.02-22.18c-.17-3.2-3.9-5.94-10.84-7.92-6.46-1.84-15.02-2.86-24.11-2.86S22.35 18.16 15.89 20c-6.94 1.98-10.67 4.72-10.84 7.92L.04 50.1c-.03.11-.04.21-.04.32 0 8.08 20.61 12.44 40 12.44s40-4.36 40-12.44c0-.11-.01-.21-.03-.32zM40 20c19.89 0 32.11 4.74 32.11 8.15 0 .84-.76 1.77-2.19 2.69-1.08-5.73-19.85-7.27-29.91-7.27-10.06 0-28.84 1.54-29.91 7.27-1.44-.92-2.2-1.85-2.2-2.69C7.89 24.75 20.1 20 40 20zm0 16.29c-9.79 0-17.71-1.15-23.24-2.72-2.57-.82-3.87-1.66-3.87-2.21 0-1.47 9.22-4.93 27.11-4.93s27.11 3.46 27.11 4.93c0 .55-1.3 1.39-3.87 2.21-5.53 1.57-13.45 2.72-23.24 2.72zm26.88 20.54C59.72 58.87 50.17 60 40 60c-22.75 0-36.82-5.46-37.14-9.45l4.18-18.49c1.79 1.63 4.76 3.06 8.85 4.23.29.08.59.16.88.24 3.72 1.11 8.53 1.8 13.17 2.19 2.82.25 5.76.39 8.76.42.44.01.88.01 1.29.01.41 0 .85 0 1.29-.01 3.01-.03 5.95-.17 8.76-.42 4.64-.39 9.44-1.08 13.17-2.19.3-.08.59-.16.88-.24 4.09-1.17 7.06-2.6 8.85-4.23l4.18 18.49c-.12 1.69-2.87 4.18-10.24 6.28zM58 45.38c-.48-.63-1.38-.74-2-.26l-4.04 3.1H47.3c.4-1.09 1.3-1.76 1.33-1.79.64-.45.81-1.33.36-1.98-.45-.65-1.33-.82-1.99-.37-.09.06-2.19 1.53-2.66 4.14H40.5c.43-2.04 1.56-3.49 1.65-3.61.49-.61.39-1.51-.22-2.01-.61-.49-1.51-.4-2.01.22-.92 1.14-1.96 3.1-2.31 5.39h-2.85c-.3-2.19-1.51-3.71-2.12-4.35-.57-.55-1.34-.82-2.09-.75-1.99.15-5.87 1.08-9.6 5.58-.22.26-.36.59-.36.95 0 .37.14.71.38.97 3.49 4.19 7.09 5.23 9.45 5.36.08.01.16.01.24.01.79 0 1.54-.35 2.04-.97.02-.02.03-.04.05-.07 1-1.39 1.57-2.69 1.85-3.87h2.97c.23 1.71.92 3.5 2.37 5.21.28.33.68.51 1.09.51.33 0 .65-.11.92-.34.6-.51.68-1.41.17-2.01-.96-1.13-1.46-2.27-1.67-3.36h4.06c.37 1.24 1.11 2.48 2.23 3.71.28.31.67.47 1.06.47.34 0 .69-.12.96-.37.58-.53.62-1.44.09-2.02-.56-.61-.98-1.21-1.27-1.79h4.37l4.04 3.1c.26.2.57.3.87.3.43 0 .85-.19 1.13-.56.48-.63.36-1.52-.26-2l-2.95-2.26 2.95-2.26c.64-.5.75-1.39.27-2.02zm-27.45 7.74c-1.68-.11-4.1-.83-6.62-3.48 2.72-2.87 5.32-3.54 6.77-3.67 1.06 1.19 2.31 3.6-.15 7.15z" fill="#17383e"></path>
</svg>