<svg xmlns="http://www.w3.org/2000/svg" class="ugb-custom-icon" viewBox="0 0 40 40" xml:space="preserve" aria-hidden="true" width="32" height="32">  <path d="M32.84 28.38c2.72-3.11 4.95-6.36 5.87-8.59.24-.58.43-1.14.6-1.7.38-1.26.61-2.46.67-3.59C40.64 3.1 26.3-1.46 20 6.35 13.47-1.75-1.68 3.44.15 15.75c.05.31.12.63.18.95.03.12.04.23.07.35.03.12.07.24.1.36.2.77.45 1.56.79 2.38.9 2.21 3.09 5.4 5.76 8.47 4.16 4.79 9.49 9.29 12.94 9.29 3.43-.01 8.7-4.43 12.85-9.17zm-8.97 5.51c-2.15 1.43-3.35 1.64-3.87 1.64s-1.72-.21-3.87-1.64c-1.62-1.08-3.45-2.64-5.31-4.52-3.46-3.51-6.61-7.76-7.67-10.35-.87-2.13-1.25-4.15-1.12-6.01.11-1.61.61-3.08 1.47-4.36 1.73-2.58 4.85-4.19 8.14-4.19 2.75 0 5.16 1.12 6.8 3.15L20 9.55l1.56-1.94c1.64-2.03 4.05-3.15 6.8-3.15 3.29 0 6.41 1.6 8.14 4.19.86 1.28 1.35 2.75 1.47 4.37.13 1.86-.25 3.88-1.12 6.01-1.06 2.59-4.21 6.84-7.67 10.35-1.85 1.87-3.69 3.44-5.31 4.51z" fill="#fff"></path></svg>