<svg xmlns="http://www.w3.org/2000/svg">
  <path id="pawprint" d="M77.333,46.333A10.021,10.021,0,0,0,80,40c0-2.667-1.333-4.333-2.667-6.333-.667-1.333-1.667-2.333-2-3.333s0-2.333,0-4a11.253,11.253,0,0,0-.667-6.667c-1.333-2-3.333-3-5.333-4a14.573,14.573,0,0,1-3.333-2,14.573,14.573,0,0,1-2-3.333c-1-1.667-2-3.667-4-5a11.253,11.253,0,0,0-6.667-.667c-1.333,0-3,.333-4,0a12.479,12.479,0,0,1-3.333-2C44.333,1.333,42.333,0,40,0s-4.333,1.333-6.333,2.667c-1.333.667-2.333,1.667-3.333,2s-2.333,0-4,0A10.441,10.441,0,0,0,20,5.333c-2,1.333-3,3.333-4,5.333C15.333,12,15,13.333,14,14a29.313,29.313,0,0,1-3.333,2c-2,1-4,2-5.333,4a11.253,11.253,0,0,0-.667,6.667c0,1.333.333,3,0,4a12.479,12.479,0,0,1-2,3.333C1.333,35.667,0,37.667,0,40s1.333,4.333,2.667,6.333c.667,1.333,1.667,2.333,2,3.333s0,2.333,0,4a11.253,11.253,0,0,0,.667,6.667c1.333,2,3.333,3,5.333,4a14.573,14.573,0,0,1,3.333,2,14.573,14.573,0,0,1,2,3.333c1,1.667,2,3.667,4,5a11.253,11.253,0,0,0,6.667.667c1.333,0,3-.333,4,0a12.479,12.479,0,0,1,3.333,2A10.021,10.021,0,0,0,40.333,80c2.667,0,4.333-1.333,6.333-2.667C48,76.667,49,75.667,50,75.333s2.333,0,4,0a11.253,11.253,0,0,0,6.667-.667c2-1.333,3-3.333,4-5.333a14.572,14.572,0,0,1,2-3.333A14.573,14.573,0,0,1,70,64c2-1,4.333-2,5.333-4A11.253,11.253,0,0,0,76,53.333c0-1.333-.333-3,0-4C75.667,48.333,76.333,47.333,77.333,46.333Zm-2.667-2a10.977,10.977,0,0,0-2.333,4.333,12.625,12.625,0,0,0,0,5c0,1.667.333,3.667-.333,4.667A9.323,9.323,0,0,1,68,61a10.984,10.984,0,0,0-7,7c-.667,1.667-1.333,3.333-2.667,4-1,.667-2.667.333-4.667.333a25.062,25.062,0,0,0-5,0,10.977,10.977,0,0,0-4.333,2.333c-1.667,1-3,2-4.333,2s-2.667-1-4.333-2a10.977,10.977,0,0,0-4.333-2.333A5.672,5.672,0,0,0,29,72H26.333c-1.667,0-3.667.333-4.667-.333S20,69.333,19,67.667a11.761,11.761,0,0,0-2.667-4.333A11.761,11.761,0,0,0,12,60.667C10.333,60,8.667,59.333,8,58c-.667-1-.333-2.667-.333-4.667a25.063,25.063,0,0,0,0-5A10.977,10.977,0,0,0,5.333,44c-1-1.333-2-2.667-2-4s1-2.667,2-4.333a10.977,10.977,0,0,0,2.333-4.333,12.625,12.625,0,0,0,0-5c0-1.667-.333-3.667.333-4.667A9.324,9.324,0,0,1,12,19a11.761,11.761,0,0,0,4.333-2.667A11.761,11.761,0,0,0,19,12c.667-1.667,1.333-3.333,2.667-4,1-.667,2.667-.333,4.667-.333a25.063,25.063,0,0,0,5,0,10.977,10.977,0,0,0,4.333-2.333c1.667-1,3-2,4.333-2s2.667,1,4.333,2a10.977,10.977,0,0,0,4.333,2.333,12.625,12.625,0,0,0,5,0c1.667,0,3.667-.333,4.667.333S60,10.333,61,12a11.761,11.761,0,0,0,2.667,4.333A11.761,11.761,0,0,0,68,19c1.667.667,3.333,1.333,4,2.667.667,1,.333,2.667.333,4.667a25.062,25.062,0,0,0,0,5,10.977,10.977,0,0,0,2.333,4.333c1,1.667,2,3,2,4.333S75.667,42.667,74.667,44.333Zm-25.333,3-2-2c0-.333-.333-.667-.667-1.333-.667-2-2-6-7-6s-6.333,4-7,6A2.527,2.527,0,0,1,32,45.333l-2,2C28.333,49,26,51,26,54a5.52,5.52,0,0,0,1.667,4,8.006,8.006,0,0,0,5,2,7.77,7.77,0,0,0,4.667-1.333A7.845,7.845,0,0,1,40,58a7.845,7.845,0,0,1,2.667.667A7.77,7.77,0,0,0,47.333,60,6.594,6.594,0,0,0,52,58.333a5.52,5.52,0,0,0,1.667-4C53.333,51,51.333,49,49.333,47.333Zm0,8.667c-.333.667-1.333.667-2,.667a4.653,4.653,0,0,1-3-1,7.148,7.148,0,0,0-4-1.333,6.323,6.323,0,0,0-4,1.333,4.653,4.653,0,0,1-3,1A3.173,3.173,0,0,1,31,56a1.833,1.833,0,0,1-1-1.667c0-1.667,1.333-3,3-4.333.667-.667,1.667-1.333,2-2.333a16.251,16.251,0,0,0,1-2.333c.667-2.333,1.667-3.667,4-3.667s3,1.667,4,3.667a16.249,16.249,0,0,0,1,2.333A14.5,14.5,0,0,1,47,50a7.409,7.409,0,0,1,3,4.333A2.546,2.546,0,0,1,49.333,56ZM56,33.333c-2.667,0-5,2.667-5.667,6.333A14.437,14.437,0,0,1,50,41.333a6.323,6.323,0,0,0,1.333,4,3.785,3.785,0,0,0,2.667,1c2.667,0,5-2.667,5.667-6.333h0A14.436,14.436,0,0,1,60,38.333C60,35.333,58.333,33.333,56,33.333Zm.667,6.333c-.333,2.333-2,3.667-2.667,3.667a2.5,2.5,0,0,1-.333-1.667v-1C54,38.333,55.333,37,56.333,37c.333,0,.667.667.667,2C56.667,39,56.667,39.333,56.667,39.667ZM46.333,35c3,0,6-3,6.667-7.333V26a8.188,8.188,0,0,0-1.667-5,3.785,3.785,0,0,0-2.667-1c-3,0-6,3-6.667,7.333V29a8.188,8.188,0,0,0,1.667,5A3.785,3.785,0,0,0,46.333,35ZM45,27.667c.333-2.667,2.333-4.333,3.333-4.333.333,0,.667,0,.667.333A2.6,2.6,0,0,1,50,26v1h0c-.667,3-3,5.333-4,4a4.307,4.307,0,0,1-.667-2.667C45,28.667,45,28,45,27.667ZM30,41.333a3.005,3.005,0,0,0-.333-1.667C29,36,26.667,33.333,24,33.333c-2.333,0-4,2-4,5.333a3.005,3.005,0,0,0,.333,1.667h0C21,44,23.333,46.667,26,46.667a3.785,3.785,0,0,0,2.667-1A8.337,8.337,0,0,0,30,41.333Zm-4,2c-.667,0-2-1.333-2.667-3.667v-1c0-1.333.333-2,.667-2,.667,0,2,1.333,2.667,3.667v1A2.818,2.818,0,0,1,26,43.333ZM33.667,35a3.249,3.249,0,0,0,3-1.333,7.5,7.5,0,0,0,1.667-5V27c-1-4-4-7-7-7a4.072,4.072,0,0,0-3,1.333,7.5,7.5,0,0,0-1.667,5v1.333C27.667,32,30.667,35,33.667,35Zm-3-11.333c.333-.333.333-.333.667-.333,1.333,0,3,2,3.333,4.333v1A6.28,6.28,0,0,1,34,31.333c-1,1.333-3.333-1-4-4h0v-1A4.307,4.307,0,0,1,30.667,23.667Z" fill="#fff"></path>
</svg>