<svg xmlns="http://www.w3.org/2000/svg" xmlns:xlink="http://www.w3.org/1999/xlink" width="80px" height="80px" viewBox="0 0 80 80"><title>Untitled</title><g id="Page-1" stroke="none" stroke-width="1" fill="none" fill-rule="evenodd"><g id="1" fill="#FFFFFF" fill-rule="nonzero"><path d="M77.3,46.3 C78.9,44.6 79.9,42.3 80,40 C80,37.3 78.7,35.7 77.3,33.7 C76.6,32.4 75.6,31.4 75.3,30.4 C75,29.4 75.3,28.1 75.3,26.4 C75.8,24.2 75.5,21.8 74.6,19.7 C73.3,17.7 71.3,16.7 69.3,15.7 C68.1,15.2 67,14.5 66,13.7 C65.2,12.7 64.5,11.6 64,10.4 C63,8.7 62,6.7 60,5.4 C57.9,4.5 55.6,4.3 53.3,4.7 C52,4.7 50.3,5 49.3,4.7 C48.1,4.2 47,3.5 46,2.7 C44.3,1.3 42.3,0 40,0 C37.7,0 35.7,1.3 33.7,2.7 C32.4,3.4 31.4,4.4 30.4,4.7 C29.4,5 28.1,4.7 26.4,4.7 C24.2,4.2 22,4.5 20,5.3 C18,6.6 17,8.6 16,10.6 C15.3,11.9 15,13.3 14,13.9 C12.9,14.6 11.8,15.3 10.7,15.9 C8.7,16.9 6.7,17.9 5.4,19.9 C4.5,22 4.3,24.3 4.7,26.6 C4.7,27.9 5,29.6 4.7,30.6 C4.2,31.8 3.5,32.9 2.7,33.9 C1.3,35.7 0,37.7 0,40 C0,42.3 1.3,44.3 2.7,46.3 C3.4,47.6 4.4,48.6 4.7,49.6 C5,50.6 4.7,51.9 4.7,53.6 C4.2,55.8 4.5,58.2 5.4,60.3 C6.7,62.3 8.7,63.3 10.7,64.3 C11.9,64.8 13,65.5 14,66.3 C14.8,67.3 15.5,68.4 16,69.6 C17,71.3 18,73.3 20,74.6 C22.1,75.5 24.4,75.7 26.7,75.3 C28,75.3 29.7,75 30.7,75.3 C31.9,75.8 33,76.5 34,77.3 C35.7,78.9 38,79.9 40.3,80 C43,80 44.6,78.7 46.6,77.3 C47.9,76.6 48.9,75.6 49.9,75.3 C50.9,75 52.2,75.3 53.9,75.3 C56.1,75.8 58.5,75.5 60.6,74.6 C62.6,73.3 63.6,71.3 64.6,69.3 C65.1,68.1 65.8,67 66.6,66 C67.6,65.2 68.7,64.5 69.9,64 C71.9,63 74.2,62 75.2,60 C76.1,57.9 76.3,55.6 75.9,53.3 C75.9,52 75.6,50.3 75.9,49.3 C75.7,48.3 76.3,47.3 77.3,46.3 Z M74.7,44.3 C73.6,45.5 72.8,47 72.4,48.6 C72.1,50.3 72.1,51.9 72.4,53.6 C72.4,55.3 72.7,57.3 72.1,58.3 C71,59.5 69.6,60.4 68.1,61 C64.8,62.1 62.2,64.7 61.1,68 C60.4,69.7 59.8,71.3 58.4,72 C57.4,72.7 55.7,72.3 53.7,72.3 C52,72.1 50.4,72.1 48.7,72.3 C47.1,72.7 45.6,73.5 44.4,74.6 C42.7,75.6 41.4,76.6 40.1,76.6 C38.8,76.6 37.4,75.6 35.8,74.6 C34.6,73.5 33.1,72.7 31.5,72.3 C30.8,72 30,71.9 29.2,72 L26.5,72 C24.8,72 22.8,72.3 21.8,71.7 C20.8,71.1 20.1,69.4 19.1,67.7 C18.5,66.1 17.6,64.6 16.4,63.4 C15.2,62.2 13.7,61.3 12.1,60.7 C10.3,60 8.7,59.3 8,58 C7.3,57 7.7,55.3 7.7,53.3 C7.9,51.6 7.9,50 7.7,48.3 C7.3,46.7 6.5,45.2 5.4,44 C4.4,42.7 3.4,41.3 3.4,40 C3.4,38.7 4.4,37.3 5.4,35.7 C6.5,34.5 7.3,33 7.7,31.4 C8,29.8 8,28 7.7,26.4 C7.7,24.7 7.4,22.7 8,21.7 C9.1,20.5 10.5,19.6 12,19 C13.6,18.4 15.1,17.5 16.3,16.3 C17.5,15.1 18.4,13.6 19,12 C19.7,10.3 20.3,8.7 21.7,8 C22.7,7.3 24.4,7.7 26.4,7.7 C28.1,7.9 29.7,7.9 31.4,7.7 C33,7.3 34.5,6.5 35.7,5.4 C37.4,4.4 38.7,3.4 40,3.4 C41.3,3.4 42.7,4.4 44.3,5.4 C45.5,6.5 47,7.3 48.6,7.7 C50.3,8 51.9,8 53.6,7.7 C55.3,7.7 57.3,7.4 58.3,8 C59.3,8.6 60,10.3 61,12 C61.6,13.6 62.5,15.1 63.7,16.3 C64.9,17.5 66.4,18.4 68,19 C69.7,19.7 71.3,20.3 72,21.7 C72.7,22.7 72.3,24.4 72.3,26.4 C72.1,28.1 72.1,29.7 72.3,31.4 C72.7,33 73.5,34.5 74.6,35.7 C75.6,37.4 76.6,38.7 76.6,40 C76.6,41.3 75.7,42.7 74.7,44.3 L74.7,44.3 Z M49.3,47.3 L47.3,45.3 C47.3,45 47,44.6 46.6,44 C45.9,42 44.6,38 39.6,38 C34.6,38 33.3,42 32.6,44 C32.5,44.5 32.3,45 31.9,45.3 L29.9,47.3 C28.3,49 26,51 26,54 C26,55.5 26.6,56.9 27.7,58 C29.1,59.2 30.9,59.9 32.7,60 C34.4,60.1 36,59.6 37.4,58.7 C38.2,58.3 39.1,58.1 40.1,58 C41,58.1 41.9,58.3 42.8,58.7 C44.2,59.6 45.8,60.1 47.5,60 C49.2,60.1 50.9,59.5 52.2,58.3 C53.3,57.2 53.9,55.8 53.9,54.3 C53.3,51 51.3,49 49.3,47.3 Z M49.3,56 C49,56.7 48,56.7 47.3,56.7 C46.2,56.7 45.2,56.4 44.3,55.7 C43.1,54.9 41.7,54.4 40.3,54.4 C38.9,54.4 37.4,54.8 36.3,55.7 C35.4,56.4 34.4,56.7 33.3,56.7 C32.5,56.8 31.6,56.6 31,56 C30.4,55.7 30,55 30,54.3 C30,52.6 31.3,51.3 33,50 C33.7,49.3 34.7,48.7 35,47.7 C35.4,46.9 35.7,46.2 36,45.4 C36.7,43.1 37.7,41.7 40,41.7 C42.3,41.7 43,43.4 44,45.4 C44.3,46.2 44.6,47 45,47.7 C45.7,48.4 46.4,49.2 47,50 C48.5,51 49.6,52.6 50,54.3 C50,55 49.8,55.5 49.3,56 Z M56,33.3 C53.3,33.3 51,36 50.3,39.6 C50.2,40.2 50.1,40.7 50,41.3 C50,42.7 50.4,44.2 51.3,45.3 C52,46 53,46.3 54,46.3 C56.7,46.3 59,43.6 59.7,40 L59.7,40 C59.8,39.4 59.9,38.9 60,38.3 C60,35.3 58.3,33.3 56,33.3 Z M56.7,39.7 C56.4,42 54.7,43.4 54,43.4 C53.7,42.9 53.6,42.3 53.7,41.7 L53.7,40.7 C54,38.4 55.4,37 56.4,37 C56.7,37 57.1,37.7 57.1,39 C56.7,39 56.7,39.3 56.7,39.7 L56.7,39.7 Z M46.3,35 C49.3,35 52.3,32 53,27.7 L53,26 C53,24.2 52.4,22.4 51.3,21 C50.6,20.3 49.6,20 48.6,20 C45.6,20 42.6,23 41.9,27.3 L41.9,29 C41.9,30.8 42.5,32.6 43.6,34 C44.4,34.7 45.3,35 46.3,35 Z M45,27.7 C45.3,25 47.3,23.4 48.3,23.4 C48.6,23.4 49,23.4 49,23.7 C49.7,24.3 50.1,25.1 50,26 L50,27 L50,27 C49.3,30 47,32.3 46,31 C45.5,30.2 45.3,29.3 45.3,28.3 C45,28.7 45,28 45,27.7 Z M30,41.3 C30.1,40.7 29.9,40.1 29.7,39.6 C29,35.9 26.7,33.3 24,33.3 C21.7,33.3 20,35.3 20,38.6 C19.9,39.2 20.1,39.8 20.3,40.3 L20.3,40.3 C21,44 23.3,46.6 26,46.6 C27,46.6 27.9,46.3 28.7,45.6 C29.5,44.4 30,42.9 30,41.3 Z M26,43.3 C25.3,43.3 24,42 23.3,39.6 L23.3,38.6 C23.3,37.3 23.6,36.6 24,36.6 C24.7,36.6 26,37.9 26.7,40.3 L26.7,41.3 C26.7,42.1 26.5,42.8 26,43.3 Z M33.7,35 C34.9,35.1 36,34.6 36.7,33.7 C37.8,32.3 38.4,30.5 38.4,28.7 L38.4,27 C37.4,23 34.4,20 31.4,20 C30.3,20 29.2,20.5 28.4,21.3 C27.3,22.7 26.7,24.5 26.7,26.3 L26.7,27.6 C27.7,32 30.7,35 33.7,35 Z M30.7,23.7 C31,23.4 31,23.4 31.4,23.4 C32.7,23.4 34.4,25.4 34.7,27.7 L34.7,28.7 C34.7,29.6 34.4,30.5 34,31.4 C33,32.7 30.7,30.4 30,27.4 L30,27.4 L30,26.4 C29.9,25.4 30.2,24.5 30.7,23.7 Z" id="pawprint"></path></g></g></svg>