<svg xmlns="http://www.w3.org/2000/svg">
  <path d="M70 40c0-16.54-13.46-30-30-30S10 23.46 10 40c0 11.21 6.18 21 15.32 26.15.05.04.11.07.17.1C29.79 68.63 34.74 70 40 70s10.2-1.36 14.5-3.75c.06-.04.13-.06.19-.11C63.82 60.99 70 51.21 70 40zM48.34 14.17c-1.02.72-2.02 1.48-2.98 2.28-1.4-.79-3.26-1.26-5.37-1.26-2.23 0-4.19.53-5.61 1.41-.86-.9-1.82-1.7-2.86-2.38 2.67-.88 5.51-1.36 8.47-1.36 2.92 0 5.72.46 8.35 1.31zm-3.63 6.99c-.76.74-2.44 1.44-4.71 1.44-2.25 0-3.91-.69-4.68-1.42-.05-.06-.11-.12-.17-.17-.2-.24-.31-.47-.31-.69 0-.23.12-.48.35-.74.04-.04.09-.08.12-.12.77-.73 2.43-1.42 4.68-1.42 3.15 0 5.16 1.35 5.16 2.28 0 .22-.11.45-.32.69l-.12.15zM12.86 40c0-10.7 6.23-19.98 15.25-24.39 1.62.72 3.08 1.75 4.29 3.04-.26.52-.41 1.08-.41 1.68 0 .53.12 1.03.33 1.51-3.54 3.23-14.16 15.3-8.41 40.01-6.7-4.96-11.05-12.91-11.05-21.85zm14.55 24.03c-6.95-25.28 3.63-37.18 6.82-40.08 1.44.94 3.46 1.51 5.78 1.51 2.32 0 4.34-.57 5.78-1.51 3.19 2.9 13.77 14.8 6.82 40.08-3.77 1.98-8.05 3.11-12.6 3.11-4.55 0-8.84-1.13-12.6-3.11zm28.69-2.19c5.75-24.71-4.87-36.78-8.41-40.01.21-.47.33-.98.33-1.51 0-.68-.19-1.32-.54-1.91 1.3-1.07 2.67-2.06 4.09-2.96C60.76 19.8 67.14 29.17 67.14 40c0 8.94-4.35 16.89-11.04 21.84z" fill="#17383e"></path>
</svg>